<svg width="56" height="56" viewBox="0 0 56 56" fill="none" xmlns="http://www.w3.org/2000/svg">
<g clip-path="url(#clip0_2031_759)">
<rect x="2" y="2" width="52" height="52" rx="26" fill="url(#paint0_linear_2031_759)"/>
<g filter="url(#filter0_d_2031_759)">
<path d="M35.5019 23.4235C35.4131 23.4235 35.3375 23.4062 35.2754 23.3718C35.2132 23.3373 35.1643 23.277 35.1288 23.1908L34.3559 21.4326L32.4105 20.6052C32.3216 20.5708 32.2594 20.5234 32.2239 20.463C32.1884 20.4027 32.1706 20.3295 32.1706 20.2433C32.1706 20.1571 32.1884 20.0838 32.2239 20.0235C32.2594 19.9632 32.3216 19.9158 32.4105 19.8813L34.3559 19.0798L35.1288 17.3992C35.1643 17.313 35.2132 17.2527 35.2754 17.2182C35.3375 17.1837 35.4131 17.1665 35.5019 17.1665C35.5907 17.1665 35.6662 17.1837 35.7284 17.2182C35.7906 17.2527 35.8395 17.313 35.875 17.3992L36.6479 19.0798L38.5933 19.8813C38.6822 19.9158 38.7443 19.9632 38.7799 20.0235C38.8154 20.0838 38.8332 20.1571 38.8332 20.2433C38.8332 20.3295 38.8154 20.4027 38.7799 20.463C38.7443 20.5234 38.6822 20.5708 38.5933 20.6052L36.6479 21.4326L35.875 23.1908C35.8395 23.277 35.7906 23.3373 35.7284 23.3718C35.6662 23.4062 35.5907 23.4235 35.5019 23.4235ZM35.5019 38.8332C35.4308 38.8332 35.3598 38.8159 35.2887 38.7815C35.2176 38.747 35.1643 38.6867 35.1288 38.6005L34.3559 36.9199L32.4371 36.1184C32.3483 36.0839 32.2861 36.0365 32.2506 35.9762C32.215 35.9158 32.1973 35.8426 32.1973 35.7564C32.1973 35.6702 32.215 35.597 32.2506 35.5366C32.2861 35.4763 32.3483 35.4289 32.4371 35.3944L34.3559 34.5929L35.1288 32.8089C35.1643 32.7227 35.2132 32.6624 35.2754 32.6279C35.3375 32.5934 35.4131 32.5762 35.5019 32.5762C35.5907 32.5762 35.6662 32.5934 35.7284 32.6279C35.7906 32.6624 35.8395 32.7227 35.875 32.8089L36.6479 34.5929L38.5667 35.3944C38.6555 35.4289 38.7177 35.4763 38.7532 35.5366C38.7888 35.597 38.8065 35.6702 38.8065 35.7564C38.8065 35.8426 38.7888 35.9158 38.7532 35.9762C38.7177 36.0365 38.6555 36.0839 38.5667 36.1184L36.6479 36.9199L35.875 38.6005C35.8395 38.6867 35.7862 38.747 35.7151 38.7815C35.644 38.8159 35.573 38.8332 35.5019 38.8332ZM23.8024 34.3602C23.6603 34.3602 23.5226 34.3214 23.3893 34.2439C23.2561 34.1663 23.1539 34.0586 23.0829 33.9207L21.3506 30.3268L17.6196 28.6979C17.4774 28.629 17.3664 28.5299 17.2864 28.4006C17.2065 28.2713 17.1665 28.1377 17.1665 27.9998C17.1665 27.8619 17.2065 27.7284 17.2864 27.5991C17.3664 27.4698 17.4774 27.3707 17.6196 27.3017L21.3506 25.6729L23.0829 22.1048C23.1539 21.9497 23.2561 21.8334 23.3893 21.7558C23.5226 21.6782 23.6603 21.6395 23.8024 21.6395C23.9446 21.6395 24.0822 21.6782 24.2155 21.7558C24.3488 21.8334 24.4509 21.9411 24.522 22.079L26.2809 25.6729L29.9853 27.3017C30.1452 27.3707 30.2651 27.4698 30.3451 27.5991C30.425 27.7284 30.465 27.8619 30.465 27.9998C30.465 28.1377 30.425 28.2713 30.3451 28.4006C30.2651 28.5299 30.1452 28.629 29.9853 28.6979L26.2809 30.3268L24.522 33.9207C24.4509 34.0758 24.3488 34.1879 24.2155 34.2568C24.0822 34.3257 23.9446 34.3602 23.8024 34.3602Z" fill="#F2F2F7"/>
</g>
</g>
<rect x="2" y="2" width="52" height="52" rx="26" stroke="#D5F1FC" stroke-width="4"/>
<defs>
<filter id="filter0_d_2031_759" x="-41.9835" y="4.96095" width="139.967" height="139.967" filterUnits="userSpaceOnUse" color-interpolation-filters="sRGB">
<feFlood flood-opacity="0" result="BackgroundImageFix"/>
<feColorMatrix in="SourceAlpha" type="matrix" values="0 0 0 0 0 0 0 0 0 0 0 0 0 0 0 0 0 0 127 0" result="hardAlpha"/>
<feOffset dy="46.9445"/>
<feGaussianBlur stdDeviation="29.575"/>
<feComposite in2="hardAlpha" operator="out"/>
<feColorMatrix type="matrix" values="0 0 0 0 0.262745 0 0 0 0 0.0941176 0 0 0 0 1 0 0 0 0.28 0"/>
<feBlend mode="normal" in2="BackgroundImageFix" result="effect1_dropShadow_2031_759"/>
<feBlend mode="normal" in="SourceGraphic" in2="effect1_dropShadow_2031_759" result="shape"/>
</filter>
<linearGradient id="paint0_linear_2031_759" x1="28" y1="2" x2="28" y2="54" gradientUnits="userSpaceOnUse">
<stop offset="0.399038" stop-color="#2BBAF2"/>
<stop offset="0.966346" stop-color="#D5DA6C"/>
</linearGradient>
<clipPath id="clip0_2031_759">
<rect x="2" y="2" width="52" height="52" rx="26" fill="white"/>
</clipPath>
</defs>
</svg>
