<svg width="22" height="22" viewBox="0 0 22 22" fill="none" xmlns="http://www.w3.org/2000/svg">
<g clip-path="url(#clip0_2027_7176)">
<rect x="1" y="1" width="20" height="20" rx="10" fill="url(#paint0_linear_2027_7176)"/>
<g filter="url(#filter0_d_2027_7176)">
<path d="M13.8853 9.23978C13.8512 9.23978 13.8221 9.23315 13.7982 9.21989C13.7743 9.20663 13.7555 9.18342 13.7418 9.15028L13.4446 8.47406L12.6963 8.15585C12.6621 8.14259 12.6382 8.12436 12.6246 8.10115C12.6109 8.07795 12.6041 8.04977 12.6041 8.01663C12.6041 7.98348 12.6109 7.9553 12.6246 7.9321C12.6382 7.90889 12.6621 7.89066 12.6963 7.8774L13.4446 7.56913L13.7418 6.92275C13.7555 6.8896 13.7743 6.8664 13.7982 6.85314C13.8221 6.83988 13.8512 6.83325 13.8853 6.83325C13.9195 6.83325 13.9485 6.83988 13.9724 6.85314C13.9964 6.8664 14.0152 6.8896 14.0288 6.92275L14.3261 7.56913L15.0743 7.8774C15.1085 7.89066 15.1324 7.90889 15.1461 7.9321C15.1598 7.9553 15.1666 7.98348 15.1666 8.01663C15.1666 8.04977 15.1598 8.07795 15.1461 8.10115C15.1324 8.12436 15.1085 8.14259 15.0743 8.15585L14.3261 8.47406L14.0288 9.15028C14.0152 9.18342 13.9964 9.20663 13.9724 9.21989C13.9485 9.23315 13.9195 9.23978 13.8853 9.23978ZM13.8853 15.1666C13.858 15.1666 13.8307 15.16 13.8033 15.1467C13.776 15.1334 13.7555 15.1102 13.7418 15.0771L13.4446 14.4307L12.7066 14.1224C12.6724 14.1092 12.6485 14.0909 12.6348 14.0677C12.6211 14.0445 12.6143 14.0164 12.6143 13.9832C12.6143 13.9501 12.6211 13.9219 12.6348 13.8987C12.6485 13.8755 12.6724 13.8573 12.7066 13.844L13.4446 13.5357L13.7418 12.8496C13.7555 12.8164 13.7743 12.7932 13.7982 12.78C13.8221 12.7667 13.8512 12.7601 13.8853 12.7601C13.9195 12.7601 13.9485 12.7667 13.9724 12.78C13.9964 12.7932 14.0152 12.8164 14.0288 12.8496L14.3261 13.5357L15.0641 13.844C15.0983 13.8573 15.1222 13.8755 15.1358 13.8987C15.1495 13.9219 15.1563 13.9501 15.1563 13.9832C15.1563 14.0164 15.1495 14.0445 15.1358 14.0677C15.1222 14.0909 15.0983 14.1092 15.0641 14.1224L14.3261 14.4307L14.0288 15.0771C14.0152 15.1102 13.9947 15.1334 13.9673 15.1467C13.94 15.16 13.9127 15.1666 13.8853 15.1666ZM9.38553 13.4462C9.33086 13.4462 9.2779 13.4313 9.22665 13.4015C9.1754 13.3716 9.13611 13.3302 9.10877 13.2772L8.44252 11.8949L7.0075 11.2684C6.95284 11.2419 6.91013 11.2038 6.87938 11.1541C6.84863 11.1043 6.83325 11.053 6.83325 10.9999C6.83325 10.9469 6.84863 10.8955 6.87938 10.8458C6.91013 10.7961 6.95284 10.7579 7.0075 10.7314L8.44252 10.1049L9.10877 8.73262C9.13611 8.67295 9.1754 8.6282 9.22665 8.59837C9.2779 8.56853 9.33086 8.55362 9.38553 8.55362C9.44019 8.55362 9.49315 8.56853 9.5444 8.59837C9.59565 8.6282 9.63495 8.66963 9.66228 8.72267L10.3388 10.1049L11.7636 10.7314C11.8251 10.7579 11.8712 10.7961 11.9019 10.8458C11.9327 10.8955 11.9481 10.9469 11.9481 10.9999C11.9481 11.053 11.9327 11.1043 11.9019 11.1541C11.8712 11.2038 11.8251 11.2419 11.7636 11.2684L10.3388 11.8949L9.66228 13.2772C9.63495 13.3368 9.59565 13.3799 9.5444 13.4064C9.49315 13.433 9.44019 13.4462 9.38553 13.4462Z" fill="#F2F2F7"/>
</g>
</g>
<rect x="1" y="1" width="20" height="20" rx="10" stroke="#D5F1FC" stroke-width="1.53846"/>
<defs>
<filter id="filter0_d_2027_7176" x="-15.9168" y="2.13881" width="53.8333" height="53.8333" filterUnits="userSpaceOnUse" color-interpolation-filters="sRGB">
<feFlood flood-opacity="0" result="BackgroundImageFix"/>
<feColorMatrix in="SourceAlpha" type="matrix" values="0 0 0 0 0 0 0 0 0 0 0 0 0 0 0 0 0 0 127 0" result="hardAlpha"/>
<feOffset dy="18.0556"/>
<feGaussianBlur stdDeviation="11.375"/>
<feComposite in2="hardAlpha" operator="out"/>
<feColorMatrix type="matrix" values="0 0 0 0 0.262745 0 0 0 0 0.0941176 0 0 0 0 1 0 0 0 0.28 0"/>
<feBlend mode="normal" in2="BackgroundImageFix" result="effect1_dropShadow_2027_7176"/>
<feBlend mode="normal" in="SourceGraphic" in2="effect1_dropShadow_2027_7176" result="shape"/>
</filter>
<linearGradient id="paint0_linear_2027_7176" x1="11" y1="1" x2="11" y2="21" gradientUnits="userSpaceOnUse">
<stop offset="0.399038" stop-color="#2BBAF2"/>
<stop offset="0.966346" stop-color="#D5DA6C"/>
</linearGradient>
<clipPath id="clip0_2027_7176">
<rect x="1" y="1" width="20" height="20" rx="10" fill="white"/>
</clipPath>
</defs>
</svg>
