<svg width="60" height="40" viewBox="0 0 60 40" fill="none" xmlns="http://www.w3.org/2000/svg">
<rect width="60" height="40" rx="8" fill="white"/>
<circle cx="39.5007" cy="13.2727" r="1.58369" fill="#FE5F76"/>
<circle cx="45.0441" cy="13.2727" r="1.97961" fill="#CFD659"/>
<circle cx="51.4774" cy="13.2727" r="2.47451" fill="#40C1F3"/>
<path d="M35.1807 17.4801C42.4786 17.4801 42.4786 17.4801 44.0487 18.9525C45.2817 20.2554 45.5676 21.9232 45.5291 23.6532C45.4888 24.9631 45.0912 26.2675 44.2374 27.2792C44.194 27.3336 44.194 27.3336 44.1498 27.3892C43.142 28.6141 41.5702 28.9655 40.0802 29.1598C38.4633 29.1598 36.8465 29.1598 35.1807 29.1598C35.1807 25.3055 35.1807 21.4512 35.1807 17.4801Z" fill="#01A5FD"/>
<path d="M52.2923 21.0532C52.3288 21.0826 52.3652 21.1121 52.4027 21.1424C52.4407 21.1723 52.4786 21.2022 52.5177 21.233C53.2929 21.8792 53.7729 22.9271 53.9369 23.9138C53.9432 24.0382 53.9473 24.1612 53.9487 24.2856C53.9492 24.3213 53.9497 24.357 53.9502 24.3938C53.9654 25.8017 53.7921 27.0894 52.7952 28.175C51.9859 28.9711 50.979 29.3505 49.854 29.3701C48.8411 29.3534 47.9187 29.0458 47.1568 28.3679C47.1228 28.3386 47.0888 28.3092 47.0537 28.279C46.2122 27.5022 45.8216 26.294 45.7648 25.1775C45.717 23.8637 45.9424 22.64 46.832 21.6218C46.9063 21.5436 46.9815 21.4662 47.0578 21.3898C47.0917 21.3553 47.1257 21.3208 47.1606 21.2852C48.5119 19.9965 50.8185 19.9399 52.2923 21.0532Z" fill="#01A5FD"/>
<path d="M37.5957 19.7307C41.1799 19.7307 41.1799 19.7307 42.0838 20.5751C42.8884 21.4176 43.0652 22.4691 43.0535 23.595C43.0272 24.5659 42.6717 25.4934 41.9619 26.1704C40.7372 27.2057 39.1189 26.9563 37.5957 26.9563C37.5957 24.5718 37.5957 22.1874 37.5957 19.7307Z" fill="#FDFEFA"/>
<path d="M50.7302 22.3764C51.2272 22.7345 51.5006 23.2653 51.605 23.8618C51.6584 24.1992 51.6671 24.5312 51.6655 24.8723C51.6652 24.9334 51.6649 24.9944 51.6646 25.0573C51.6547 25.8033 51.5435 26.5112 51.0159 27.0808C50.627 27.4399 50.1723 27.5266 49.6577 27.5212C49.2509 27.4779 48.9347 27.2844 48.6559 26.9911C48.0611 26.2511 48.0086 25.1365 48.0975 24.2232C48.1946 23.4794 48.4321 22.881 49.0106 22.3823C49.4999 22.0256 50.2275 22.0762 50.7302 22.3764Z" fill="#FDFEFA"/>
<path d="M12.8609 17.3312C12.8954 17.3416 12.9299 17.3519 12.9655 17.3626C14.0877 17.7106 15.0753 18.5203 15.6324 19.5583C15.9019 20.1271 16.0778 20.7055 16.0778 21.34C15.2449 21.34 14.412 21.34 13.5538 21.34C13.5048 21.2093 13.4558 21.0786 13.4053 20.944C13.1418 20.2926 12.7986 19.8151 12.1505 19.5138C11.4593 19.2259 10.7549 19.2186 10.0586 19.4819C9.32502 19.8173 8.8963 20.4016 8.61691 21.142C8.38538 21.7948 8.28993 22.4226 8.29547 23.1154C8.29602 23.2072 8.29602 23.2072 8.29659 23.3009C8.30954 24.3966 8.54376 25.5683 9.33515 26.3823C9.94651 26.9586 10.5926 27.1059 11.4079 27.0945C11.9813 27.0744 12.566 26.8587 12.9692 26.4374C13.2939 26.0202 13.4508 25.5665 13.5538 25.0517C14.3867 25.0517 15.2196 25.0517 16.0778 25.0517C15.9771 26.159 15.6434 27.0949 14.89 27.9221C14.8466 27.9708 14.8466 27.9708 14.8023 28.0204C13.9333 28.9424 12.6144 29.3115 11.3859 29.3717C9.99482 29.4111 8.62344 29.0515 7.56549 28.1201C7.51547 28.0823 7.46545 28.0446 7.41392 28.0057C6.33822 27.0215 5.71737 25.4515 5.63537 24.0124C5.55551 22.1934 5.92779 20.3745 7.07058 18.9149C7.09604 18.8824 7.12149 18.8499 7.14772 18.8163C7.90472 17.8932 9.12061 17.2617 10.3047 17.1427C11.1617 17.0814 12.0343 17.0777 12.8609 17.3312Z" fill="#01A5FD"/>
<path d="M20.6988 20.2764C20.7343 20.2767 20.7697 20.2769 20.8063 20.2772C21.9091 20.2872 22.7627 20.519 23.595 21.2774C23.7955 21.4829 23.9276 21.7181 24.058 21.9714C24.0743 22.0027 24.0906 22.0339 24.1074 22.0661C24.4176 22.6988 24.4128 23.3208 24.4108 24.0112C24.4104 24.187 24.4109 24.3627 24.4117 24.5384C24.4136 25.0377 24.4137 25.5369 24.4136 26.0362C24.4136 26.3427 24.4146 26.6492 24.416 26.9557C24.4166 27.1275 24.416 27.2993 24.4154 27.4711C24.4158 27.5782 24.4163 27.6853 24.4169 27.7924C24.4164 27.839 24.4159 27.8857 24.4154 27.9338C24.4201 28.383 24.5227 28.6928 24.6395 29.1599C23.9372 29.1599 23.235 29.1599 22.5114 29.1599C22.3672 28.9076 22.2794 28.7378 22.2021 28.4701C22.1772 28.3852 22.1772 28.3852 22.1518 28.2986C22.1398 28.2562 22.1278 28.2138 22.1155 28.1701C22.0956 28.1946 22.0758 28.2192 22.0554 28.2445C21.5188 28.8857 20.8657 29.2011 20.0369 29.3083C19.0671 29.382 18.0429 29.2462 17.2654 28.6155C16.8894 28.2774 16.647 27.7865 16.616 27.2788C16.5834 26.3538 16.5834 26.3538 16.7705 25.943C16.7868 25.9064 16.8031 25.8698 16.8198 25.8321C17.2181 25.0355 17.9448 24.6066 18.7502 24.3098C18.9467 24.247 19.1419 24.2017 19.344 24.1614C19.3872 24.1524 19.4304 24.1434 19.4749 24.1342C20.004 24.0383 20.5311 24.0514 21.0669 24.0562C21.1641 24.0567 21.2613 24.0572 21.3585 24.0576C21.5944 24.0586 21.8302 24.0603 22.066 24.0624C22.0517 23.9198 22.037 23.7773 22.0221 23.6348C22.0181 23.5947 22.0142 23.5546 22.0101 23.5132C21.9637 23.077 21.8557 22.6847 21.5216 22.3797C21.1196 22.1214 20.6445 22.1368 20.1854 22.1818C19.872 22.2667 19.6363 22.4652 19.4738 22.7443C19.362 22.9589 19.2932 23.129 19.2451 23.3695C18.4938 23.3695 17.7425 23.3695 16.9685 23.3695C17.0456 22.4447 17.3367 21.7391 18.0078 21.093C18.7607 20.4575 19.7393 20.2617 20.6988 20.2764Z" fill="#01A5FD"/>
<path d="M32.9668 20.8163C33.6924 21.4136 33.9733 22.261 34.0921 23.1715C34.1044 23.3774 34.1047 23.5825 34.1033 23.7887C34.1033 23.8472 34.1033 23.9057 34.1034 23.9659C34.1033 24.1571 34.1025 24.3483 34.1017 24.5395C34.1015 24.6729 34.1014 24.8063 34.1013 24.9397C34.101 25.2536 34.1002 25.5675 34.0992 25.8814C34.0981 26.2392 34.0976 26.5969 34.0971 26.9547C34.096 27.6897 34.0942 28.4248 34.0921 29.1599C33.2918 29.1599 32.4916 29.1599 31.6671 29.1599C31.6651 28.5754 31.6651 28.5754 31.6632 27.9791C31.6619 27.7314 31.6606 27.4838 31.6591 27.2361C31.6567 26.8435 31.6546 26.4509 31.6536 26.0583C31.6529 25.7416 31.6512 25.4249 31.6488 25.1081C31.6481 24.9876 31.6477 24.8671 31.6477 24.7466C31.6475 24.5771 31.6462 24.4076 31.6446 24.2382C31.6448 24.1889 31.6451 24.1397 31.6453 24.089C31.6378 23.573 31.5087 23.0915 31.1372 22.7186C30.7011 22.3672 30.1412 22.3791 29.6062 22.4162C29.094 22.4731 28.678 22.7303 28.3512 23.1221C28.036 23.6142 27.9409 24.0953 27.9395 24.6708C27.9388 24.744 27.9388 24.744 27.938 24.8187C27.9365 24.9786 27.9356 25.1384 27.9348 25.2983C27.9339 25.4097 27.9329 25.5211 27.9319 25.6326C27.9294 25.9247 27.9274 26.2169 27.9256 26.5091C27.9232 26.8602 27.9202 27.2114 27.9172 27.5625C27.9129 28.095 27.9094 28.6274 27.9058 29.1599C27.1219 29.1599 26.338 29.1599 25.5303 29.1599C25.5303 26.3181 25.5303 23.4764 25.5303 20.5486C26.2979 20.5486 27.0655 20.5486 27.8563 20.5486C27.8808 21.1365 27.8808 21.1365 27.9058 21.7363C27.9875 21.6455 28.0691 21.5546 28.1533 21.461C28.2515 21.3541 28.3507 21.2481 28.4502 21.1425C28.482 21.1086 28.5139 21.0747 28.5467 21.0398C29.6684 19.9584 31.752 19.8857 32.9668 20.8163Z" fill="#00A5FD"/>
<path d="M22.0558 25.6206C22.064 26.2469 21.9915 26.8444 21.5491 27.3247C21.1151 27.7105 20.6175 27.7703 20.0578 27.7608C19.6542 27.7335 19.3595 27.6059 19.0864 27.3032C18.9451 27.0821 18.963 26.8149 18.9874 26.5609C19.0733 26.2442 19.2611 26.0441 19.5318 25.868C20.2989 25.5142 21.2338 25.6083 22.0558 25.6206Z" fill="#FCFEFA"/>
<path d="M33.7346 21.9576C33.8778 22.1008 33.8932 22.273 33.9356 22.4649C33.9442 22.502 33.9528 22.5392 33.9616 22.5776C33.9859 22.6842 34.0097 22.7907 34.0315 22.8979C34.04 22.9371 34.0485 22.9763 34.0573 23.0167C34.0911 23.2708 34.0874 23.5222 34.0866 23.7783C34.0866 23.8367 34.0866 23.8952 34.0866 23.9554C34.0866 24.115 34.0864 24.2746 34.086 24.4342C34.0857 24.6012 34.0857 24.7682 34.0856 24.9353C34.0855 25.2513 34.085 25.5673 34.0846 25.8833C34.084 26.2432 34.0837 26.6031 34.0835 26.963C34.083 27.703 34.0821 28.4431 34.081 29.1831C33.2807 29.1831 32.4805 29.1831 31.656 29.1831C31.6541 28.7929 31.6523 28.4027 31.6504 28.0006C31.6489 27.7527 31.6473 27.5049 31.6456 27.257C31.6429 26.8639 31.6404 26.4709 31.6388 26.0778C31.6375 25.7608 31.6355 25.4438 31.633 25.1267C31.6322 25.006 31.6317 24.8853 31.6313 24.7647C31.6309 24.595 31.6295 24.4254 31.6279 24.2558C31.6279 24.2064 31.628 24.157 31.6281 24.1061C31.6236 23.7667 31.5613 23.4683 31.458 23.1453C31.4907 23.1453 31.5233 23.1453 31.557 23.1453C31.5809 23.2144 31.6046 23.2835 31.6281 23.3526C31.6479 23.4103 31.6479 23.4103 31.6681 23.4692C31.7296 23.6695 31.7611 23.8576 31.7609 24.0671C31.761 24.1116 31.761 24.1561 31.7611 24.2019C31.7609 24.2501 31.7608 24.2982 31.7606 24.3479C31.7606 24.3991 31.7606 24.4503 31.7606 24.503C31.7606 24.672 31.7602 24.841 31.7598 25.0099C31.7597 25.1272 31.7596 25.2445 31.7596 25.3617C31.7594 25.6702 31.7589 25.9786 31.7583 26.287C31.7578 26.6018 31.7576 26.9167 31.7574 27.2315C31.7568 27.849 31.756 28.4666 31.7549 29.0842C32.4899 29.0842 33.2248 29.0842 33.982 29.0842C33.9789 28.3033 33.9752 27.5224 33.9703 26.7416C33.9681 26.3789 33.9662 26.0163 33.9649 25.6536C33.9637 25.3372 33.9621 25.0208 33.9598 24.7044C33.9586 24.5372 33.9577 24.3699 33.9574 24.2027C33.9557 23.5347 33.9505 22.9035 33.784 22.2545C33.7666 22.1557 33.7499 22.0568 33.7346 21.9576Z" fill="#26A4ED"/>
<path d="M15.8192 20.2756C15.8519 20.292 15.8845 20.3083 15.9182 20.3251C15.9502 20.4443 15.9761 20.5598 15.9986 20.6808C16.0086 20.7299 16.0086 20.7299 16.0187 20.7799C16.058 20.9827 16.0667 21.1545 16.0667 21.3644C15.2337 21.3644 14.4008 21.3644 13.5427 21.3644C13.5263 21.2828 13.51 21.2011 13.4932 21.117C13.5095 21.166 13.5258 21.215 13.5427 21.2654C14.3429 21.2654 15.1432 21.2654 15.9677 21.2654C15.9187 20.947 15.9187 20.947 15.8687 20.6221C15.852 20.5066 15.8353 20.3912 15.8192 20.2756Z" fill="#34A6E8"/>
<path d="M13.5439 25.0757C14.3769 25.0757 15.2098 25.0757 16.0679 25.0757C16.0364 25.423 16.0112 25.6921 15.9195 26.0161C15.87 25.8181 15.87 25.8181 15.969 25.1747C15.185 25.1747 14.4011 25.1747 13.5934 25.1747C13.5771 25.2074 13.5608 25.2401 13.5439 25.2737C13.5439 25.2084 13.5439 25.1431 13.5439 25.0757Z" fill="#1DA2EB"/>
<path d="M18.0467 21.067C18.0794 21.067 18.1121 21.067 18.1457 21.067C18.0687 21.256 17.9499 21.3768 17.7993 21.5124C17.7666 21.5124 17.7339 21.5124 17.7003 21.5124C17.6806 21.5533 17.6806 21.5533 17.6605 21.5951C17.5944 21.7237 17.5215 21.8465 17.4467 21.9702C17.42 22.0143 17.3933 22.0584 17.3658 22.1039C17.3456 22.1374 17.3253 22.1708 17.3044 22.2052C17.288 22.1726 17.2717 22.1399 17.2549 22.1062C17.4331 21.7033 17.7386 21.3751 18.0467 21.067Z" fill="#1299ED"/>
<path d="M17.4532 25.0266C17.4532 25.2136 17.4039 25.2474 17.28 25.3823C17.2479 25.4177 17.2157 25.4531 17.1826 25.4896C17.1576 25.5165 17.1326 25.5433 17.1068 25.571C17.0741 25.5547 17.0415 25.5383 17.0078 25.5215C17.1548 25.3582 17.3018 25.1949 17.4532 25.0266Z" fill="#1198EB"/>
</svg>
