<svg width="121" height="48" viewBox="0 0 121 48" fill="none" xmlns="http://www.w3.org/2000/svg">
<circle cx="84.7522" cy="7.18181" r="3.95921" fill="#FE5F76"/>
<circle cx="98.6092" cy="7.18181" r="4.94902" fill="#CFD659"/>
<circle cx="114.694" cy="7.18176" r="6.18627" fill="#40C1F3"/>
<path d="M73.9512 17.7005C92.1961 17.7005 92.1961 17.7005 96.1212 21.3813C99.2038 24.6388 99.9185 28.8081 99.8222 33.1332C99.7214 36.408 98.7275 39.669 96.5929 42.1981C96.4846 42.3343 96.4846 42.3343 96.374 42.4731C93.8546 45.5354 89.925 46.4138 86.2 46.8997C82.1579 46.8997 78.1158 46.8997 73.9512 46.8997C73.9512 37.264 73.9512 27.6282 73.9512 17.7005Z" fill="#01A5FD"/>
<path d="M116.73 26.6334C116.821 26.7069 116.912 26.7805 117.006 26.8562C117.101 26.931 117.196 27.0058 117.294 27.0829C119.232 28.6984 120.432 31.3182 120.842 33.7848C120.858 34.0957 120.868 34.4032 120.871 34.7142C120.872 34.8035 120.874 34.8928 120.875 34.9847C120.913 38.5046 120.48 41.7238 117.987 44.4378C115.964 46.4281 113.447 47.3766 110.634 47.4256C108.102 47.3839 105.796 46.6148 103.891 44.9201C103.806 44.8468 103.721 44.7734 103.634 44.6978C101.53 42.7559 100.554 39.7354 100.412 36.944C100.292 33.6597 100.856 30.6002 103.079 28.0548C103.265 27.8592 103.453 27.6658 103.644 27.4748C103.729 27.3886 103.814 27.3023 103.901 27.2134C107.279 23.9916 113.046 23.85 116.73 26.6334Z" fill="#01A5FD"/>
<path d="M79.9902 23.3267C88.9507 23.3267 88.9507 23.3267 91.2106 25.4377C93.222 27.5438 93.6639 30.1725 93.6348 32.9874C93.5689 35.4147 92.6803 37.7334 90.9056 39.426C87.844 42.014 83.7983 41.3906 79.9902 41.3906C79.9902 35.4295 79.9902 29.4684 79.9902 23.3267Z" fill="#FDFEFA"/>
<path d="M112.825 29.941C114.067 30.8365 114.751 32.1633 115.012 33.6547C115.145 34.4981 115.167 35.3282 115.163 36.1809C115.163 36.3335 115.162 36.4862 115.161 36.6434C115.136 38.5083 114.858 40.2781 113.539 41.7022C112.567 42.5999 111.43 42.8165 110.144 42.8031C109.127 42.6949 108.336 42.2111 107.639 41.4779C106.152 39.6277 106.021 36.8413 106.243 34.558C106.486 32.6987 107.08 31.2025 108.526 29.956C109.749 29.064 111.568 29.1907 112.825 29.941Z" fill="#FDFEFA"/>
<path d="M18.1523 17.3286C18.2386 17.3544 18.3249 17.3803 18.4137 17.4069C21.2193 18.277 23.6883 20.3013 25.081 22.8962C25.7547 24.3183 26.1945 25.7641 26.1945 27.3503C24.1122 27.3503 22.0299 27.3503 19.8845 27.3503C19.762 27.0237 19.6395 26.6971 19.5133 26.3605C18.8544 24.7318 17.9965 23.5381 16.3762 22.7851C14.6483 22.0653 12.8873 22.0469 11.1464 22.7053C9.31256 23.5437 8.24074 25.0045 7.54228 26.8555C6.96345 28.4874 6.72483 30.057 6.73867 31.789C6.74006 32.0185 6.74006 32.0185 6.74148 32.2526C6.77385 34.992 7.35941 37.9212 9.33787 39.9563C10.8663 41.3969 12.4815 41.7651 14.5198 41.7368C15.9533 41.6864 17.415 41.1472 18.423 40.0941C19.2348 39.051 19.6271 37.9168 19.8845 36.6297C21.9668 36.6297 24.0491 36.6297 26.1945 36.6297C25.9428 39.398 25.1084 41.7376 23.2251 43.8058C23.1165 43.9274 23.1165 43.9274 23.0057 44.0513C20.8332 46.3564 17.536 47.2792 14.4647 47.4296C10.9871 47.5281 7.5586 46.6293 4.91372 44.3007C4.78868 44.2063 4.66364 44.1119 4.53481 44.0146C1.84556 41.5542 0.293435 37.6293 0.0884228 34.0315C-0.111224 29.4839 0.819471 24.9368 3.67646 21.2878C3.7401 21.2064 3.80373 21.1251 3.8693 21.0413C5.76181 18.7334 8.80153 17.1547 11.7618 16.8571C13.9042 16.7039 16.0859 16.6948 18.1523 17.3286Z" fill="#01A5FD"/>
<path d="M37.748 24.6909C37.8367 24.6915 37.9253 24.6922 38.0166 24.6929C40.7737 24.7179 42.9078 25.2973 44.9884 27.1934C45.4898 27.7072 45.8199 28.2952 46.1459 28.9284C46.1867 29.0065 46.2275 29.0846 46.2695 29.165C47.0449 30.7468 47.033 32.302 47.0281 34.0279C47.027 34.4673 47.0282 34.9065 47.0301 35.3459C47.0351 36.594 47.0353 37.8422 47.035 39.0903C47.035 39.8566 47.0374 40.6228 47.0411 41.389C47.0424 41.8186 47.0409 42.2481 47.0394 42.6776C47.0405 42.9453 47.0417 43.2131 47.0431 43.4808C47.0419 43.5975 47.0407 43.7141 47.0395 43.8343C47.0512 44.9573 47.3078 45.732 47.5997 46.8996C45.844 46.8996 44.0884 46.8996 42.2795 46.8996C41.919 46.2688 41.6994 45.8443 41.5062 45.1751C41.444 44.9629 41.444 44.9629 41.3806 44.7465C41.3506 44.6404 41.3206 44.5343 41.2897 44.4251C41.2401 44.4865 41.1905 44.5479 41.1394 44.6111C39.7981 46.214 38.1652 47.0027 36.0932 47.2708C33.6687 47.455 31.1083 47.1153 29.1646 45.5386C28.2245 44.6935 27.6184 43.4662 27.541 42.1968C27.4594 39.8843 27.4594 39.8843 27.9273 38.8574C27.968 38.7659 28.0087 38.6743 28.0506 38.58C29.0462 36.5887 30.8629 35.5163 32.8764 34.7745C33.3678 34.6174 33.8556 34.5042 34.3611 34.4033C34.469 34.3809 34.577 34.3585 34.6883 34.3354C36.0111 34.0957 37.3286 34.1284 38.6683 34.1404C38.9113 34.1416 39.1543 34.1428 39.3973 34.1438C39.9869 34.1465 40.5764 34.1507 41.166 34.1559C41.1303 33.7994 41.0936 33.4431 41.0563 33.0868C41.0463 32.9865 41.0364 32.8863 41.0262 32.783C40.9102 31.6923 40.6402 30.7117 39.805 29.9492C38.7999 29.3033 37.6122 29.3418 36.4644 29.4543C35.6811 29.6666 35.0918 30.163 34.6854 30.8607C34.406 31.3972 34.2339 31.8224 34.1136 32.4237C32.2355 32.4237 30.3573 32.4237 28.4222 32.4237C28.6149 30.1117 29.3427 28.3476 31.0205 26.7323C32.9027 25.1437 35.3493 24.6542 37.748 24.6909Z" fill="#01A5FD"/>
<path d="M68.4174 26.041C70.2316 27.5343 70.9337 29.6527 71.2307 31.9291C71.2615 32.4438 71.2622 32.9564 71.2588 33.4719C71.2588 33.6181 71.2588 33.7644 71.2589 33.915C71.2587 34.393 71.2568 34.871 71.2548 35.3489C71.2542 35.6825 71.254 36.016 71.2538 36.3495C71.253 37.1343 71.251 37.919 71.2485 38.7037C71.2457 39.5981 71.2444 40.4925 71.2431 41.3869C71.2405 43.2245 71.236 45.0622 71.2307 46.8999C69.23 46.8999 67.2294 46.8999 65.1681 46.8999C65.1633 45.4386 65.1633 45.4386 65.1585 43.9479C65.1553 43.3287 65.1521 42.7096 65.1483 42.0905C65.1423 41.109 65.1369 40.1275 65.1346 39.1459C65.1327 38.3541 65.1284 37.5624 65.1226 36.7706C65.1207 36.4693 65.1197 36.168 65.1196 35.8667C65.1193 35.443 65.116 35.0193 65.1119 34.5956C65.1126 34.4725 65.1132 34.3494 65.1138 34.2226C65.0949 32.9327 64.7723 31.729 63.8434 30.7967C62.7533 29.9183 61.3534 29.948 60.0159 30.0408C58.7354 30.183 57.6954 30.826 56.8785 31.8054C56.0904 33.0358 55.8527 34.2385 55.8493 35.6771C55.8474 35.8602 55.8474 35.8602 55.8455 36.047C55.8417 36.4466 55.8396 36.8462 55.8375 37.2459C55.8352 37.5245 55.8327 37.8031 55.8302 38.0816C55.8239 38.812 55.819 39.5424 55.8144 40.2729C55.8085 41.1507 55.8009 42.0286 55.7936 42.9065C55.7827 44.2376 55.7741 45.5687 55.765 46.8999C53.8052 46.8999 51.8454 46.8999 49.8262 46.8999C49.8262 39.7956 49.8262 32.6912 49.8262 25.3716C51.7452 25.3716 53.6641 25.3716 55.6413 25.3716C55.7025 26.8415 55.7025 26.8415 55.765 28.341C55.9691 28.1139 56.1733 27.8868 56.3836 27.6528C56.6291 27.3855 56.8771 27.1206 57.126 26.8563C57.2056 26.7717 57.2851 26.687 57.3671 26.5997C60.1714 23.8963 65.3806 23.7146 68.4174 26.041Z" fill="#00A5FD"/>
<path d="M41.1384 38.0518C41.159 39.6176 40.9778 41.1113 39.8717 42.3121C38.7869 43.2767 37.5429 43.4261 36.1435 43.4024C35.1346 43.334 34.3977 43.015 33.7149 42.2585C33.3617 41.7055 33.4066 41.0377 33.4675 40.4026C33.6822 39.6108 34.1517 39.1107 34.8284 38.6704C36.7464 37.7858 39.0834 38.021 41.1384 38.0518Z" fill="#FCFEFA"/>
<path d="M70.3359 28.8943C70.694 29.2524 70.7325 29.6828 70.8385 30.1625C70.86 30.2555 70.8814 30.3484 70.9035 30.4442C70.9643 30.7108 71.0238 30.9771 71.0783 31.2451C71.0995 31.3431 71.1208 31.4412 71.1427 31.5422C71.2273 32.1774 71.2181 32.8058 71.216 33.446C71.216 33.5921 71.2161 33.7382 71.2161 33.8888C71.216 34.2878 71.2154 34.6867 71.2145 35.0857C71.2138 35.5033 71.2137 35.9209 71.2135 36.3385C71.2131 37.1286 71.2121 37.9186 71.2109 38.7086C71.2095 39.6084 71.2088 40.5081 71.2082 41.4078C71.2069 43.258 71.2046 45.1081 71.202 46.9582C69.2013 46.9582 67.2007 46.9582 65.1394 46.9582C65.1348 45.9826 65.1302 45.007 65.1254 44.0018C65.1217 43.3822 65.1178 42.7625 65.1136 42.1428C65.1069 41.1602 65.1005 40.1776 65.0966 39.1949C65.0933 38.4023 65.0883 37.6097 65.0821 36.8172C65.0801 36.5154 65.0786 36.2137 65.0779 35.912C65.0767 35.4879 65.0732 35.0639 65.0692 34.6399C65.0694 34.5164 65.0696 34.3928 65.0697 34.2656C65.0585 33.4171 64.9028 32.6711 64.6445 31.8637C64.7262 31.8637 64.8078 31.8637 64.892 31.8637C64.9517 32.0362 65.0109 32.209 65.0698 32.3818C65.1194 32.5261 65.1194 32.5261 65.1699 32.6732C65.3236 33.1741 65.4024 33.6443 65.4018 34.1681C65.4019 34.2793 65.4021 34.3905 65.4023 34.5051C65.4018 34.6255 65.4014 34.7459 65.4009 34.87C65.4009 34.998 65.401 35.126 65.401 35.2579C65.4009 35.6803 65.3999 36.1027 65.399 36.5252C65.3987 36.8183 65.3986 37.1115 65.3984 37.4046C65.398 38.1757 65.3967 38.9468 65.3954 39.7179C65.3941 40.5049 65.3935 41.292 65.3929 42.079C65.3916 43.6229 65.3894 45.1668 65.3869 46.7108C67.2242 46.7108 69.0615 46.7108 70.9545 46.7108C70.9467 44.7586 70.9374 42.8064 70.9254 40.8543C70.9198 39.9477 70.9149 39.0411 70.9117 38.1345C70.9088 37.3434 70.9047 36.5524 70.899 35.7613C70.8961 35.3433 70.8937 34.9252 70.893 34.5071C70.8887 32.8372 70.8757 31.2592 70.4596 29.6366C70.4161 29.3896 70.3742 29.1422 70.3359 28.8943Z" fill="#26A4ED"/>
<path d="M25.5475 24.689C25.6292 24.7298 25.7108 24.7706 25.795 24.8127C25.8751 25.1107 25.9398 25.3994 25.996 25.702C26.0209 25.8246 26.0209 25.8246 26.0463 25.9497C26.1444 26.4568 26.1661 26.8861 26.1661 27.4109C24.0838 27.4109 22.0015 27.4109 19.8561 27.4109C19.8153 27.2068 19.7745 27.0026 19.7324 26.7923C19.7733 26.9148 19.8141 27.0373 19.8561 27.1635C21.8568 27.1635 23.8574 27.1635 25.9187 27.1635C25.7962 26.3673 25.7962 26.3673 25.6712 25.555C25.6294 25.2664 25.5878 24.9778 25.5475 24.689Z" fill="#34A6E8"/>
<path d="M19.8594 36.6896C21.9417 36.6896 24.024 36.6896 26.1694 36.6896C26.0905 37.5576 26.0274 38.2304 25.7982 39.0404C25.6745 38.5455 25.6745 38.5455 25.9219 36.937C23.9621 36.937 22.0023 36.937 19.9831 36.937C19.9423 37.0187 19.9014 37.1003 19.8594 37.1845C19.8594 37.0212 19.8594 36.8578 19.8594 36.6896Z" fill="#1DA2EB"/>
<path d="M31.1163 26.6676C31.198 26.6676 31.2796 26.6676 31.3638 26.6676C31.1713 27.1402 30.8743 27.4422 30.4977 27.7811C30.416 27.7811 30.3344 27.7811 30.2502 27.7811C30.201 27.8835 30.201 27.8835 30.1507 27.988C29.9856 28.3095 29.8033 28.6164 29.6162 28.9256C29.5495 29.036 29.4828 29.1463 29.4141 29.26C29.3634 29.3436 29.3127 29.4272 29.2604 29.5133C29.2196 29.4316 29.1788 29.35 29.1367 29.2658C29.5823 28.2585 30.346 27.438 31.1163 26.6676Z" fill="#1299ED"/>
<path d="M29.6331 36.5664C29.6331 37.034 29.5097 37.1184 29.2 37.4557C29.1196 37.5442 29.0393 37.6327 28.9564 37.7239C28.8939 37.7911 28.8314 37.8582 28.767 37.9274C28.6853 37.8866 28.6037 37.8457 28.5195 37.8037C28.887 37.3954 29.2545 36.9871 29.6331 36.5664Z" fill="#1198EB"/>
</svg>
